<mxfile host="65bd71144e">
    <diagram id="But8hSmg9H4xDqJuk2Ak" name="Página-1">
        <mxGraphModel dx="1173" dy="766" grid="0" gridSize="10" guides="1" tooltips="1" connect="1" arrows="1" fold="1" page="1" pageScale="1" pageWidth="1169" pageHeight="827" background="#ffffff" math="0" shadow="0">
            <root>
                <mxCell id="0"/>
                <mxCell id="1" parent="0"/>
                <mxCell id="27" style="edgeStyle=none;html=1;entryX=0.5;entryY=0;entryDx=0;entryDy=0;fontFamily=Tahoma;fontSize=10;strokeColor=#333333;strokeWidth=0.8;" edge="1" parent="1" source="12" target="23">
                    <mxGeometry relative="1" as="geometry"/>
                </mxCell>
                <mxCell id="12" value="&lt;font color=&quot;#1a1a1a&quot;&gt;Base de datos&lt;/font&gt;" style="shape=cylinder3;whiteSpace=wrap;html=1;boundedLbl=1;backgroundOutline=1;size=9.666656494140625;fontFamily=Tahoma;fontSize=10;fillColor=#EDEBFF;strokeColor=#A3A3CC;" vertex="1" parent="1">
                    <mxGeometry x="200" y="360" width="90" height="60" as="geometry"/>
                </mxCell>
                <mxCell id="24" style="edgeStyle=none;html=1;exitX=0.5;exitY=1;exitDx=0;exitDy=0;entryX=0.5;entryY=0;entryDx=0;entryDy=0;entryPerimeter=0;fontFamily=Tahoma;fontSize=10;strokeColor=#333333;strokeWidth=0.8;" edge="1" parent="1" source="3" target="12">
                    <mxGeometry relative="1" as="geometry">
                        <Array as="points">
                            <mxPoint x="355" y="340"/>
                        </Array>
                    </mxGeometry>
                </mxCell>
                <mxCell id="13" value="" style="swimlane;startSize=0;fontFamily=Tahoma;fontSize=10;strokeColor=#B3B38F;fillStyle=solid;fillColor=#FBFFD4;gradientColor=none;swimlaneFillColor=#FFFFD6;" vertex="1" parent="1">
                    <mxGeometry x="250" y="10" width="210" height="150" as="geometry">
                        <mxRectangle x="250" y="10" width="50" height="40" as="alternateBounds"/>
                    </mxGeometry>
                </mxCell>
                <mxCell id="28" style="edgeStyle=none;html=1;entryX=0.5;entryY=0;entryDx=0;entryDy=0;fontFamily=Tahoma;fontSize=10;strokeColor=#333333;strokeWidth=0.8;" edge="1" parent="13" source="5" target="3">
                    <mxGeometry relative="1" as="geometry"/>
                </mxCell>
                <mxCell id="5" value="&lt;font color=&quot;#1a1a1a&quot;&gt;Obtención de imágenes satelitales&amp;nbsp;&lt;br&gt;(ESA WorldCover 10m 2021 v200*)&lt;/font&gt;" style="rounded=0;whiteSpace=wrap;html=1;fontFamily=Tahoma;fontSize=10;fillColor=#EDEBFF;strokeColor=#A3A3CC;" vertex="1" parent="13">
                    <mxGeometry x="15" y="30" width="180" height="40" as="geometry"/>
                </mxCell>
                <mxCell id="3" value="&lt;font face=&quot;Tahoma&quot; style=&quot;font-size: 10px;&quot;&gt;&lt;font color=&quot;#1a1a1a&quot;&gt;Clasificación de Coberturas&amp;nbsp;&lt;br&gt;(Forestal, Cultivos, Pastizales)&lt;/font&gt;&lt;br&gt;&lt;/font&gt;" style="shape=parallelogram;perimeter=parallelogramPerimeter;whiteSpace=wrap;html=1;fixedSize=1;fontColor=#EDEBFF;strokeColor=#A3A3CC;fillColor=#EDEBFF;" vertex="1" parent="13">
                    <mxGeometry x="15" y="90" width="180" height="40" as="geometry"/>
                </mxCell>
                <mxCell id="14" value="Fase de Gabinete 1" style="text;html=1;strokeColor=none;fillColor=none;align=center;verticalAlign=middle;whiteSpace=wrap;rounded=0;fontFamily=Tahoma;fontSize=10;fontColor=#1A1A1A;" vertex="1" parent="13">
                    <mxGeometry x="50" width="110" height="30" as="geometry"/>
                </mxCell>
                <mxCell id="25" style="edgeStyle=none;html=1;entryX=0.5;entryY=0;entryDx=0;entryDy=0;entryPerimeter=0;fontFamily=Tahoma;fontSize=10;exitX=0.5;exitY=1;exitDx=0;exitDy=0;strokeColor=#333333;strokeWidth=0.8;" edge="1" parent="1" source="2" target="12">
                    <mxGeometry relative="1" as="geometry">
                        <Array as="points">
                            <mxPoint x="120" y="340"/>
                        </Array>
                    </mxGeometry>
                </mxCell>
                <mxCell id="20" value="" style="swimlane;startSize=0;fontFamily=Tahoma;fontSize=10;fillColor=#FBFFD4;fillStyle=solid;strokeColor=#B3B38F;gradientColor=none;swimlaneFillColor=#FFFFD6;" vertex="1" parent="1">
                    <mxGeometry x="10" y="180" width="220" height="150" as="geometry"/>
                </mxCell>
                <mxCell id="19" value="Fase de Campo-Laboratorio" style="text;html=1;strokeColor=none;fillColor=none;align=center;verticalAlign=middle;whiteSpace=wrap;rounded=0;fontFamily=Tahoma;fontSize=10;fontColor=#1A1A1A;" vertex="1" parent="20">
                    <mxGeometry x="35" width="150" height="30" as="geometry"/>
                </mxCell>
                <mxCell id="29" value="" style="edgeStyle=none;html=1;fontFamily=Tahoma;fontSize=10;strokeColor=#333333;strokeWidth=0.8;" edge="1" parent="20" source="4" target="2">
                    <mxGeometry relative="1" as="geometry"/>
                </mxCell>
                <mxCell id="4" value="&lt;font color=&quot;#1a1a1a&quot;&gt;Muestreo de suelo&amp;nbsp;&lt;br&gt;Provincias: Chanchamayo, Satipo&lt;/font&gt;" style="rounded=0;whiteSpace=wrap;html=1;fontFamily=Tahoma;fontSize=10;fillColor=#EDEBFF;strokeColor=#A3A3CC;" vertex="1" parent="20">
                    <mxGeometry x="20" y="30" width="180" height="40" as="geometry"/>
                </mxCell>
                <mxCell id="2" value="&lt;font color=&quot;#1a1a1a&quot; face=&quot;Tahoma&quot; style=&quot;font-size: 10px;&quot;&gt;Muestreo de suelo&amp;nbsp;&lt;br&gt;Provincias: Chanchamayo, Satipo&lt;/font&gt;" style="shape=parallelogram;perimeter=parallelogramPerimeter;whiteSpace=wrap;html=1;fixedSize=1;fontColor=#EDEBFF;strokeColor=#A3A3CC;fillColor=#EDEBFF;" vertex="1" parent="20">
                    <mxGeometry x="20" y="90" width="180" height="40" as="geometry"/>
                </mxCell>
                <mxCell id="23" value="" style="swimlane;startSize=0;fontFamily=Tahoma;fontSize=10;fillColor=#FFFFCC;strokeColor=#B3B38F;fillStyle=solid;swimlaneFillColor=#FBFFD4;" vertex="1" parent="1">
                    <mxGeometry x="125" y="450" width="240" height="340" as="geometry"/>
                </mxCell>
                <mxCell id="30" style="edgeStyle=none;html=1;entryX=0.5;entryY=0;entryDx=0;entryDy=0;fontFamily=Tahoma;fontSize=10;strokeColor=#333333;strokeWidth=0.8;" edge="1" parent="23" source="6" target="7">
                    <mxGeometry relative="1" as="geometry"/>
                </mxCell>
                <mxCell id="6" value="&lt;font color=&quot;#1a1a1a&quot;&gt;Análisis de asociación &lt;br&gt;(Correlación con coeficientes de Pearson)&lt;/font&gt;" style="rounded=0;whiteSpace=wrap;html=1;fontFamily=Tahoma;fontSize=10;fillColor=#EDEBFF;strokeColor=#A3A3CC;" vertex="1" parent="23">
                    <mxGeometry x="25" y="30" width="190" height="40" as="geometry"/>
                </mxCell>
                <mxCell id="35" style="edgeStyle=none;html=1;exitX=0.5;exitY=1;exitDx=0;exitDy=0;entryX=0.5;entryY=0;entryDx=0;entryDy=0;fontFamily=Tahoma;fontSize=10;strokeColor=#333333;strokeWidth=0.8;" edge="1" parent="23" source="9" target="10">
                    <mxGeometry relative="1" as="geometry"/>
                </mxCell>
                <mxCell id="9" value="&lt;font color=&quot;#1a1a1a&quot;&gt;Estandarización de variables&lt;/font&gt;" style="rounded=0;whiteSpace=wrap;html=1;fontFamily=Tahoma;fontSize=10;fillColor=#EDEBFF;strokeColor=#A3A3CC;" vertex="1" parent="23">
                    <mxGeometry x="35" y="191" width="170" height="30" as="geometry"/>
                </mxCell>
                <mxCell id="36" style="edgeStyle=none;html=1;exitX=0.5;exitY=1;exitDx=0;exitDy=0;entryX=0.5;entryY=0;entryDx=0;entryDy=0;fontFamily=Tahoma;fontSize=10;strokeColor=#333333;strokeWidth=0.8;" edge="1" parent="23" source="10" target="11">
                    <mxGeometry relative="1" as="geometry"/>
                </mxCell>
                <mxCell id="10" value="&lt;font color=&quot;#1a1a1a&quot;&gt;Ponderación de variables indicadoras&lt;/font&gt;" style="rounded=0;whiteSpace=wrap;html=1;fontFamily=Tahoma;fontSize=10;fillColor=#EDEBFF;strokeColor=#A3A3CC;" vertex="1" parent="23">
                    <mxGeometry x="25" y="240" width="190" height="30" as="geometry"/>
                </mxCell>
                <mxCell id="11" value="&lt;font color=&quot;#1a1a1a&quot;&gt;Cálculo de índice de calidad de suelo ponderado&lt;/font&gt;" style="rounded=0;whiteSpace=wrap;html=1;fontFamily=Tahoma;fontSize=10;fillColor=#EDEBFF;strokeColor=#A3A3CC;" vertex="1" parent="23">
                    <mxGeometry x="10" y="290" width="220" height="30" as="geometry"/>
                </mxCell>
                <mxCell id="34" style="edgeStyle=none;html=1;exitX=0.5;exitY=1;exitDx=0;exitDy=0;entryX=0.5;entryY=0;entryDx=0;entryDy=0;fontFamily=Tahoma;fontSize=10;strokeColor=#333333;strokeWidth=0.8;" edge="1" parent="23" source="8" target="9">
                    <mxGeometry relative="1" as="geometry"/>
                </mxCell>
                <mxCell id="8" value="&lt;font color=&quot;#1a1a1a&quot;&gt;Análisis de principales componentes - APC&lt;/font&gt;" style="rounded=0;whiteSpace=wrap;html=1;fontFamily=Tahoma;fontSize=10;fillColor=#EDEBFF;strokeColor=#A3A3CC;" vertex="1" parent="23">
                    <mxGeometry x="20" y="140" width="200" height="30" as="geometry"/>
                </mxCell>
                <mxCell id="32" style="edgeStyle=none;html=1;exitX=0.5;exitY=1;exitDx=0;exitDy=0;entryX=0.5;entryY=0;entryDx=0;entryDy=0;fontFamily=Tahoma;fontSize=10;strokeColor=#333333;strokeWidth=0.8;" edge="1" parent="23" source="7" target="8">
                    <mxGeometry relative="1" as="geometry"/>
                </mxCell>
                <mxCell id="7" value="&lt;font color=&quot;#1a1a1a&quot;&gt;Selección de conjunto mínimo de datos&lt;/font&gt;" style="rounded=0;whiteSpace=wrap;html=1;fontFamily=Tahoma;fontSize=10;fillColor=#EDEBFF;strokeColor=#A3A3CC;" vertex="1" parent="23">
                    <mxGeometry x="20" y="90" width="200" height="30" as="geometry"/>
                </mxCell>
                <mxCell id="22" value="Fase de Gabinete 2" style="text;html=1;strokeColor=none;fillColor=none;align=center;verticalAlign=middle;whiteSpace=wrap;rounded=0;fontFamily=Tahoma;fontSize=10;fontColor=#1A1A1A;" vertex="1" parent="23">
                    <mxGeometry x="65" width="110" height="30" as="geometry"/>
                </mxCell>
            </root>
        </mxGraphModel>
    </diagram>
</mxfile>